<?xml version="1.0" encoding="UTF-8" standalone="no"?>
<!DOCTYPE svg PUBLIC "-//W3C//DTD SVG 1.1//EN" "http://www.w3.org/Graphics/SVG/1.1/DTD/svg11.dtd">
<svg width="100%" height="100%" viewBox="0 0 100 75" version="1.1" xmlns="http://www.w3.org/2000/svg" xmlns:xlink="http://www.w3.org/1999/xlink" xml:space="preserve" xmlns:serif="http://www.serif.com/" style="fill-rule:evenodd;clip-rule:evenodd;stroke-linejoin:round;stroke-miterlimit:2;">
    <g transform="matrix(0.130891,0,0,0.130891,1.38765,-0.201681)">
        <g transform="matrix(1.47848,-0.035385,0.0350417,1.46413,-961.524,-1019.23)">
            <path d="M914.535,960.668C917.835,957.34 918.84,956.479 928.969,950.668C939.099,944.857 943.863,941.064 949.992,935.578C956.12,930.093 965.831,920.906 976.3,929.157C986.768,937.408 989.067,940.258 990.36,942.24C991.652,944.222 997.318,948.345 1002.81,949.841C1008.31,951.336 1011.52,953.713 1015.23,958.19C1018.94,962.667 1026.6,972.988 1034.4,974.811C1042.2,976.634 1045.87,975.729 1049.89,972.445C1053.91,969.161 1056.85,957.574 1058.06,953.805C1059.28,950.035 1062.44,944.36 1062.44,944.36C1062.44,944.36 1061.12,937.586 1062.55,936.579C1063.97,935.573 1064.89,936.954 1066.17,937.463C1067.44,937.972 1068.25,937.021 1070.85,937.267C1075.29,937.686 1079.93,939.569 1083.69,939.685C1087.45,939.802 1087.85,940.272 1090.11,940.838C1092.37,941.404 1094.81,942.144 1096.95,942.213C1099.1,942.281 1101.59,941.769 1102.75,943.304C1103.9,944.839 1104.77,945.881 1104.77,945.881C1104.77,945.881 1106.58,946.311 1107.63,948.133C1108.67,949.955 1110.56,952.287 1109.36,953.052C1108.16,953.817 1106.49,954.189 1104.57,953.234C1102.64,952.278 1104.62,953.327 1105.19,955.242C1105.76,957.157 1105.15,959.654 1102.28,957.86C1099.41,956.065 1097.91,954.632 1093.55,956.945C1089.19,959.257 1083.31,958.745 1082.07,960.687C1080.84,962.629 1078.01,964.541 1075.23,971.43C1072.45,978.319 1069.36,984.642 1063.7,990.605C1058.05,996.568 1050.04,1003.2 1042.99,1004.03C1035.95,1004.85 1020.96,1003.64 1020.96,1003.64C1020.96,1003.64 1022.23,1006.54 1023.21,1011.32C1024.19,1016.1 1024.52,1024.25 1025.6,1028.09C1026.68,1031.92 1029.5,1034.04 1030.25,1038.66C1031.03,1044.68 1031.68,1049.01 1035.37,1057.21C1037.55,1064.78 1038.84,1069.38 1038.84,1069.38C1038.84,1069.38 1040.38,1069.85 1041.15,1072.65C1041.93,1075.44 1042.49,1077.49 1042.49,1077.49C1042.49,1077.49 1045.45,1079.66 1047.27,1081.22C1049.09,1082.79 1051.21,1086.17 1048.27,1085.87C1045.34,1085.58 1045.19,1085.49 1045.19,1085.49C1045.19,1085.49 1045.37,1088.01 1041.18,1087.17C1037,1086.33 1029.83,1084.14 1031.32,1081.73C1032.8,1079.31 1032.54,1079.06 1032.17,1076.09C1031.8,1073.13 1034.54,1070.68 1027.12,1057.01C1023.26,1049.76 1021.23,1046.93 1019.65,1043.75C1018.06,1040.57 1017.85,1039.24 1017.26,1034.9C1016.68,1030.56 1016.95,1031.03 1013.88,1023.24C1010.81,1015.44 1010.28,1012.94 1008.8,1010.94C1007.31,1008.94 1007.26,1009.71 1007.26,1009.71C1007.26,1009.71 1004.25,1008.93 1002.91,1011.47C1001.56,1014.01 1000.4,1017.37 998.323,1023.69C996.245,1030.01 995.713,1033.25 995.713,1033.25C995.713,1033.25 995.027,1037.66 994.285,1042.51C992.961,1045.99 990.144,1048.62 990.144,1048.62C990.144,1048.62 989.616,1049.87 988.233,1055.42C986.851,1060.97 984.877,1069.05 984.877,1069.05C984.877,1069.05 985.743,1071.61 985.468,1074.13C985.193,1076.64 985.439,1077.83 985.439,1077.83C985.439,1077.83 988.128,1079.14 989.986,1081.05C991.845,1082.96 994.344,1087.83 991,1087.67C987.655,1087.51 988.732,1087.65 988.732,1087.65C988.732,1087.65 987.977,1088.99 983.588,1087.84C979.2,1086.7 971.425,1085.95 973.629,1082.72C975.834,1079.5 977.467,1078.98 976.841,1075.78C976.215,1072.58 976.97,1070.71 978.218,1068.18C979.467,1065.64 979.687,1066.4 980.213,1057.31C980.739,1048.22 981.57,1042.36 983.705,1035.79C985.841,1029.23 987.495,1024.91 987.073,1017.8C986.651,1010.69 986.634,1009.75 986.634,1009.75C986.634,1009.75 980.045,1010.1 972.207,1008.69C964.368,1007.28 961.009,1007.29 954.539,1003.45C948.068,999.617 941.797,994.218 941.797,994.218C941.797,994.218 944.579,1000.55 944.979,1003.68C945.379,1006.81 945.979,1008.15 943.045,1013.18C940.111,1018.2 939.239,1025.67 938.2,1030.51C937.161,1035.35 937.604,1035.61 938.716,1038.81C939.828,1042.02 940.898,1046.56 941.555,1051.76C942.212,1056.96 943.556,1069.11 943.556,1069.11C943.556,1069.11 945.46,1071.03 945.781,1073.91C946.102,1076.8 946.642,1077.53 946.642,1077.53C946.642,1077.53 947.299,1077.85 948.999,1079.11C950.699,1080.37 953.975,1083.62 951.915,1083.68C949.855,1083.73 948.828,1083.31 948.828,1083.31C948.828,1083.31 948.908,1085.42 946.22,1084.76C943.531,1084.1 940.867,1083.25 938.366,1083.08C935.865,1082.9 932.598,1082.23 934.423,1080.04C936.248,1077.84 935.865,1077.13 935.453,1075.41C935.04,1073.69 935.413,1071.73 935.83,1069.21C936.247,1066.7 936.619,1062.57 934.343,1057.06C932.068,1051.55 929.134,1044.86 927.309,1042.34C925.01,1039.17 923.771,1037.38 926.432,1031.57C928.128,1027.87 928.931,1024.47 928.886,1021.56C928.842,1018.66 927.825,1013.62 926.421,1010.52C925.016,1007.41 924.565,1006.24 924.565,1006.24C924.565,1006.24 923.46,1011.91 922.129,1013.75C920.797,1015.6 918.118,1017.82 912.988,1023.2C907.858,1028.58 901.392,1033.57 900.336,1035.47C899.279,1037.37 898.666,1039.76 897.766,1042.86C896.867,1045.95 895.226,1051.34 894.162,1053.61C893.097,1055.87 891.373,1060.39 891.373,1061.42C891.373,1062.45 893.487,1066.09 893.039,1071.15C892.591,1076.21 892.688,1076.45 892.688,1076.45C892.688,1076.45 895.685,1077.5 897.274,1080.51C898.864,1083.52 900.285,1087.54 896.714,1087.2C893.143,1086.87 893.103,1085.72 893.103,1085.72C893.103,1085.72 894.424,1088.85 887.233,1086.61C880.041,1084.36 878.7,1084.18 881.243,1078.86C883.787,1073.53 882.334,1071.93 882.334,1071.93C882.334,1071.93 880.673,1069.55 882.92,1065.14C885.167,1060.73 887.335,1054.61 887.473,1050.4C887.611,1046.18 887.181,1037.21 888.168,1033.69C889.154,1030.17 894.027,1025.51 896.023,1023.34C898.02,1021.18 903.604,1012.16 904.921,1005.21C906.239,998.262 906.232,995.186 906.655,988.658C907.078,982.129 907.461,978.274 907.461,978.274C907.461,978.274 905.94,980.669 903.72,985.235C901.5,989.802 899.347,994.163 899.347,994.163C899.347,994.163 900.151,997.947 898.433,1001.15C896.714,1004.36 891.853,1008.28 891.853,1008.28C891.853,1008.28 890.882,1003.97 890.93,1000.67C890.978,997.381 892.599,994.979 894.399,993.754C896.198,992.529 897.414,991.651 897.414,991.651C897.414,991.651 898.517,990.284 899.436,987.909C900.354,985.533 902.595,979.626 904.057,976.013C905.519,972.4 907.144,968.279 909.883,965.518C912.621,962.758 911.234,963.996 914.535,960.668Z" style="fill:rgb(115,186,155);"/>
        </g>
        <g transform="matrix(0.753829,-0.300682,0.300682,0.753829,-386.386,-269.553)">
            <g transform="matrix(532.998,0,0,532.998,144.663,1138.76)">
                <path d="M0.901,-0.679C0.901,-0.702 0.89,-0.724 0.869,-0.745C0.838,-0.774 0.796,-0.789 0.742,-0.789C0.695,-0.789 0.642,-0.779 0.585,-0.758C0.555,-0.747 0.529,-0.733 0.507,-0.714C0.473,-0.685 0.456,-0.655 0.456,-0.626C0.456,-0.587 0.481,-0.551 0.531,-0.52C0.55,-0.509 0.587,-0.49 0.644,-0.465C0.7,-0.439 0.741,-0.418 0.767,-0.402C0.806,-0.378 0.834,-0.352 0.849,-0.325C0.864,-0.298 0.871,-0.272 0.871,-0.249C0.871,-0.216 0.86,-0.182 0.838,-0.147C0.799,-0.085 0.743,-0.032 0.668,0.013C0.582,0.065 0.478,0.091 0.357,0.091C0.24,0.091 0.148,0.061 0.079,0.002C0.026,-0.043 -0.001,-0.102 -0.001,-0.173C-0.001,-0.218 0.016,-0.268 0.049,-0.323C0.082,-0.378 0.122,-0.416 0.17,-0.439C0.18,-0.443 0.188,-0.444 0.193,-0.443C0.198,-0.442 0.193,-0.435 0.18,-0.424C0.151,-0.401 0.128,-0.376 0.111,-0.349C0.074,-0.29 0.055,-0.227 0.055,-0.158C0.055,-0.113 0.068,-0.073 0.093,-0.039C0.138,0.022 0.217,0.056 0.329,0.064C0.342,0.065 0.361,0.066 0.386,0.066C0.411,0.066 0.444,0.062 0.488,0.053C0.531,0.044 0.572,0.029 0.612,0.008C0.698,-0.037 0.754,-0.096 0.779,-0.168C0.787,-0.189 0.791,-0.21 0.791,-0.23C0.791,-0.275 0.771,-0.315 0.73,-0.35C0.708,-0.367 0.663,-0.391 0.596,-0.42C0.528,-0.448 0.482,-0.471 0.459,-0.486C0.408,-0.521 0.382,-0.562 0.382,-0.609C0.382,-0.65 0.405,-0.691 0.451,-0.73C0.517,-0.786 0.61,-0.814 0.731,-0.814C0.788,-0.814 0.834,-0.806 0.87,-0.789C0.905,-0.772 0.927,-0.746 0.935,-0.712C0.936,-0.705 0.937,-0.699 0.937,-0.692C0.937,-0.666 0.925,-0.643 0.901,-0.622C0.884,-0.609 0.862,-0.598 0.834,-0.59C0.822,-0.587 0.815,-0.588 0.814,-0.594C0.813,-0.603 0.821,-0.608 0.839,-0.61C0.871,-0.614 0.891,-0.63 0.898,-0.658C0.9,-0.665 0.901,-0.672 0.901,-0.679Z" style="fill:rgb(58,58,58);fill-rule:nonzero;"/>
            </g>
            <g transform="matrix(532.998,0,0,532.998,624.894,1138.76)">
                <path d="M0.194,-0.389C0.185,-0.381 0.174,-0.377 0.163,-0.377C0.152,-0.377 0.143,-0.381 0.136,-0.389C0.129,-0.397 0.127,-0.407 0.128,-0.418C0.13,-0.429 0.136,-0.439 0.145,-0.447C0.154,-0.455 0.165,-0.459 0.176,-0.459C0.187,-0.459 0.197,-0.455 0.204,-0.447C0.211,-0.439 0.213,-0.429 0.211,-0.418C0.209,-0.407 0.203,-0.397 0.194,-0.389ZM0.096,-0.022C0.109,-0.022 0.122,-0.028 0.136,-0.041C0.161,-0.066 0.192,-0.116 0.23,-0.192C0.235,-0.202 0.239,-0.205 0.244,-0.201C0.245,-0.2 0.246,-0.198 0.246,-0.195C0.246,-0.192 0.243,-0.184 0.238,-0.173C0.233,-0.161 0.228,-0.15 0.224,-0.141C0.219,-0.132 0.211,-0.117 0.199,-0.096C0.186,-0.075 0.175,-0.058 0.165,-0.047C0.138,-0.016 0.112,-0 0.088,-0C0.063,-0 0.046,-0.007 0.035,-0.022C0.024,-0.037 0.019,-0.053 0.019,-0.071C0.019,-0.089 0.023,-0.109 0.032,-0.13L0.096,-0.293C0.097,-0.297 0.098,-0.302 0.098,-0.309C0.098,-0.316 0.094,-0.324 0.086,-0.335L0.141,-0.336C0.156,-0.336 0.165,-0.333 0.168,-0.328C0.171,-0.322 0.169,-0.313 0.162,-0.301L0.082,-0.114C0.071,-0.089 0.065,-0.068 0.065,-0.051C0.065,-0.032 0.075,-0.022 0.096,-0.022Z" style="fill:rgb(58,58,58);fill-rule:nonzero;"/>
            </g>
            <g transform="matrix(532.998,0,0,532.998,717.636,1138.76)">
                <path d="M0.268,-0.058C0.268,-0.037 0.277,-0.026 0.294,-0.026C0.325,-0.026 0.367,-0.078 0.419,-0.183C0.421,-0.187 0.423,-0.191 0.425,-0.195C0.426,-0.199 0.429,-0.202 0.433,-0.203C0.436,-0.204 0.439,-0.204 0.44,-0.201C0.441,-0.198 0.441,-0.193 0.438,-0.186C0.385,-0.062 0.331,-0 0.276,-0C0.258,-0 0.244,-0.008 0.233,-0.024C0.222,-0.04 0.217,-0.056 0.217,-0.072C0.217,-0.087 0.219,-0.102 0.222,-0.115C0.183,-0.051 0.15,-0.015 0.122,-0.006C0.114,-0.003 0.106,-0.001 0.099,-0.001C0.091,-0.001 0.083,-0.002 0.076,-0.004C0.043,-0.013 0.027,-0.039 0.027,-0.082C0.027,-0.111 0.035,-0.144 0.05,-0.18C0.065,-0.215 0.086,-0.249 0.113,-0.282C0.14,-0.315 0.173,-0.337 0.212,-0.348C0.226,-0.353 0.243,-0.355 0.262,-0.355C0.28,-0.355 0.302,-0.349 0.325,-0.337C0.37,-0.422 0.409,-0.501 0.441,-0.574C0.45,-0.596 0.46,-0.61 0.469,-0.617C0.478,-0.623 0.486,-0.626 0.494,-0.626L0.508,-0.626C0.509,-0.626 0.516,-0.625 0.527,-0.624C0.538,-0.622 0.546,-0.621 0.552,-0.622C0.537,-0.608 0.496,-0.54 0.43,-0.418C0.346,-0.262 0.295,-0.158 0.278,-0.106C0.271,-0.087 0.268,-0.071 0.268,-0.058ZM0.317,-0.321C0.308,-0.33 0.296,-0.334 0.281,-0.334C0.265,-0.334 0.243,-0.322 0.215,-0.299C0.17,-0.262 0.133,-0.216 0.104,-0.161C0.085,-0.125 0.075,-0.095 0.075,-0.072C0.075,-0.061 0.077,-0.052 0.082,-0.043C0.086,-0.034 0.093,-0.03 0.102,-0.03C0.125,-0.03 0.153,-0.053 0.186,-0.1C0.219,-0.147 0.263,-0.22 0.317,-0.321Z" style="fill:rgb(58,58,58);fill-rule:nonzero;"/>
            </g>
            <g transform="matrix(532.998,0,0,532.998,913.246,1138.76)">
                <path d="M0.194,-0.389C0.185,-0.381 0.174,-0.377 0.163,-0.377C0.152,-0.377 0.143,-0.381 0.136,-0.389C0.129,-0.397 0.127,-0.407 0.128,-0.418C0.13,-0.429 0.136,-0.439 0.145,-0.447C0.154,-0.455 0.165,-0.459 0.176,-0.459C0.187,-0.459 0.197,-0.455 0.204,-0.447C0.211,-0.439 0.213,-0.429 0.211,-0.418C0.209,-0.407 0.203,-0.397 0.194,-0.389ZM0.096,-0.022C0.109,-0.022 0.122,-0.028 0.136,-0.041C0.161,-0.066 0.192,-0.116 0.23,-0.192C0.235,-0.202 0.239,-0.205 0.244,-0.201C0.245,-0.2 0.246,-0.198 0.246,-0.195C0.246,-0.192 0.243,-0.184 0.238,-0.173C0.233,-0.161 0.228,-0.15 0.224,-0.141C0.219,-0.132 0.211,-0.117 0.199,-0.096C0.186,-0.075 0.175,-0.058 0.165,-0.047C0.138,-0.016 0.112,-0 0.088,-0C0.063,-0 0.046,-0.007 0.035,-0.022C0.024,-0.037 0.019,-0.053 0.019,-0.071C0.019,-0.089 0.023,-0.109 0.032,-0.13L0.096,-0.293C0.097,-0.297 0.098,-0.302 0.098,-0.309C0.098,-0.316 0.094,-0.324 0.086,-0.335L0.141,-0.336C0.156,-0.336 0.165,-0.333 0.168,-0.328C0.171,-0.322 0.169,-0.313 0.162,-0.301L0.082,-0.114C0.071,-0.089 0.065,-0.068 0.065,-0.051C0.065,-0.032 0.075,-0.022 0.096,-0.022Z" style="fill:rgb(58,58,58);fill-rule:nonzero;"/>
            </g>
        </g>
    </g>
</svg>